<svg width="26" height="26" viewBox="0 0 26 26" fill="none" xmlns="http://www.w3.org/2000/svg">
<path d="M21.1574 6.94415C21.4705 7.24013 21.6532 7.64834 21.6654 8.07902C21.6776 8.5097 21.5183 8.92759 21.2224 9.24081L12.0141 18.9908C11.8648 19.1485 11.6855 19.2748 11.4866 19.362C11.2878 19.4493 11.0735 19.4958 10.8564 19.4988C10.6392 19.5019 10.4237 19.4613 10.2225 19.3797C10.0213 19.298 9.8385 19.1768 9.68491 19.0233L4.80991 14.1483C4.52287 13.8403 4.3666 13.4328 4.37403 13.0118C4.38146 12.5909 4.552 12.1892 4.84973 11.8915C5.14746 11.5937 5.54913 11.4232 5.97011 11.4158C6.3911 11.4083 6.79853 11.5646 7.10658 11.8516L10.8007 15.5436L18.8607 7.00915C19.1567 6.69606 19.5649 6.51333 19.9956 6.50114C20.4263 6.48895 20.8442 6.6483 21.1574 6.94415Z" fill="#EFB304"/>
</svg>
