<svg width="127" height="38" viewBox="0 0 127 38" fill="none" xmlns="http://www.w3.org/2000/svg">
<path d="M6.05078 4.98047H9.87402V23.3203C9.87402 24.1016 9.91309 24.751 9.99121 25.2686C10.0693 25.7861 10.1914 26.2012 10.3574 26.5137C10.5332 26.8164 10.7529 27.0361 11.0166 27.1729C11.29 27.2998 11.6123 27.3633 11.9834 27.3633C12.3545 27.3633 12.6768 27.2998 12.9502 27.1729C13.2334 27.0361 13.4629 26.8164 13.6387 26.5137C13.8242 26.2012 13.9609 25.7861 14.0488 25.2686C14.1465 24.751 14.1953 24.1016 14.1953 23.3203V4.98047H17.9746V22.3096C17.9746 23.5303 17.877 24.5752 17.6816 25.4443C17.4863 26.3135 17.2275 27.041 16.9053 27.627C16.583 28.2129 16.2119 28.6768 15.792 29.0186C15.3818 29.3604 14.9521 29.624 14.5029 29.8096C14.0635 29.9854 13.624 30.0977 13.1846 30.1465C12.7451 30.1953 12.3447 30.2197 11.9834 30.2197C11.6221 30.2197 11.2217 30.1953 10.7822 30.1465C10.3525 30.0977 9.91797 29.9854 9.47852 29.8096C9.03906 29.624 8.61426 29.3604 8.2041 29.0186C7.79395 28.6768 7.42773 28.2129 7.10547 27.627C6.7832 27.041 6.52441 26.3184 6.3291 25.459C6.14355 24.5898 6.05078 23.54 6.05078 22.3096V4.98047ZM22.3797 9.8291H25.2361L25.573 11.9824V11.9971C25.866 11.5381 26.1785 11.1572 26.5105 10.8545C26.8523 10.542 27.2039 10.293 27.5652 10.1074C27.9266 9.92187 28.2928 9.79004 28.6639 9.71191C29.0447 9.63379 29.4207 9.59473 29.7918 9.59473C30.9734 9.59473 31.8816 10.0098 32.5164 10.8398C33.1609 11.6602 33.4832 12.8955 33.4832 14.5459V30H29.7771V14.6777C29.7771 13.7891 29.6404 13.1738 29.367 12.832C29.0936 12.4805 28.6932 12.3047 28.1658 12.3047C27.7947 12.3047 27.4236 12.4268 27.0525 12.6709C26.6912 12.915 26.3689 13.252 26.0857 13.6816V30H22.3797V9.8291ZM39.7486 6.94336C39.065 6.94336 38.523 6.73828 38.1227 6.32812C37.732 5.91797 37.5367 5.31738 37.5367 4.52637C37.5367 4.08691 37.5855 3.7207 37.6832 3.42773C37.7906 3.125 37.9371 2.88574 38.1227 2.70996C38.318 2.52441 38.5523 2.39258 38.8258 2.31445C39.0992 2.22656 39.4117 2.18262 39.7633 2.18262C40.4957 2.18262 41.0523 2.36816 41.4332 2.73926C41.8141 3.11035 42.0045 3.70605 42.0045 4.52637C42.0045 5.28809 41.8092 5.88379 41.4186 6.31348C41.0377 6.7334 40.4811 6.94336 39.7486 6.94336ZM37.8297 9.8291H41.5357V30H37.8297V9.8291ZM46.2924 12.4658H44.725V9.8291H46.6146L47.3617 4.59961H49.9984V9.8291H53.2211V12.4658H49.9984V25.2979C49.9984 25.7373 50.0375 26.0938 50.1156 26.3672C50.2035 26.6309 50.3207 26.8408 50.4672 26.9971C50.6137 27.1436 50.7846 27.2412 50.9799 27.29C51.1752 27.3389 51.3803 27.3633 51.5951 27.3633C51.9564 27.3633 52.2738 27.3193 52.5473 27.2314C52.8305 27.1436 53.099 27.0215 53.3529 26.8652V28.916C53.1381 29.1797 52.9037 29.3945 52.6498 29.5605C52.4057 29.7266 52.1518 29.8633 51.8881 29.9707C51.6244 30.0684 51.3559 30.1367 51.0824 30.1758C50.809 30.2148 50.5404 30.2344 50.2768 30.2344C49.7592 30.2344 49.2611 30.166 48.7826 30.0293C48.3041 29.8926 47.8793 29.6338 47.5082 29.2529C47.1371 28.8623 46.8393 28.3252 46.6146 27.6416C46.3998 26.958 46.2924 26.0693 46.2924 24.9756V12.4658ZM55.4582 33.8818C56.0148 33.96 56.5275 33.9404 56.9963 33.8232C57.465 33.7158 57.8654 33.5059 58.1975 33.1934C58.5393 32.8809 58.8078 32.4658 59.0031 31.9482C59.2082 31.4404 59.3254 30.8301 59.3547 30.1172L54.5793 9.8291H58.3439L60.468 20.9912L61.0832 24.8438H61.2004L61.6252 20.9912L63.3391 9.8291H66.9865L62.7385 30.7471C62.5529 31.7139 62.3137 32.5586 62.0207 33.2812C61.7375 34.0039 61.3811 34.6045 60.9514 35.083C60.5314 35.5615 60.0285 35.918 59.4426 36.1523C58.8566 36.3965 58.173 36.5186 57.3918 36.5186C56.757 36.5186 56.1076 36.3965 55.4436 36.1523L55.4582 33.8818Z" fill="white"/>
<path d="M70.1387 4.98047H73.9766C74.543 4.98047 75.1289 5 75.7344 5.03906C76.3398 5.07813 76.9307 5.16113 77.5068 5.28809C78.083 5.41504 78.6299 5.60547 79.1475 5.85938C79.665 6.10352 80.1143 6.43555 80.4951 6.85547C80.8857 7.27539 81.1934 7.79785 81.418 8.42285C81.6523 9.03809 81.7695 9.78027 81.7695 10.6494V11.8652C81.7695 12.5293 81.6719 13.1396 81.4766 13.6963C81.291 14.2529 81.042 14.7461 80.7295 15.1758C80.417 15.5957 80.0605 15.9473 79.6602 16.2305C79.2598 16.5039 78.8496 16.6895 78.4297 16.7871V16.9043C79.6699 17.1289 80.6025 17.7197 81.2275 18.6768C81.8623 19.624 82.1797 20.8398 82.1797 22.3242V23.5986C82.1797 24.5068 82.0771 25.2979 81.8721 25.9717C81.6768 26.6357 81.3984 27.207 81.0371 27.6855C80.6758 28.1543 80.2461 28.54 79.748 28.8428C79.25 29.1455 78.7031 29.3848 78.1074 29.5605C77.5117 29.7266 76.877 29.8438 76.2031 29.9121C75.5293 29.9707 74.8359 30 74.123 30H70.1387V4.98047ZM74.5918 15.6885C75.0996 15.6885 75.5635 15.6299 75.9834 15.5127C76.4033 15.3857 76.7598 15.1953 77.0527 14.9414C77.3555 14.6777 77.585 14.3408 77.7412 13.9307C77.9072 13.5107 77.9902 13.0078 77.9902 12.4219V11.3965C77.9902 10.8105 77.9316 10.293 77.8145 9.84375C77.6973 9.39453 77.502 9.01367 77.2285 8.70117C76.9648 8.38867 76.6133 8.1543 76.1738 7.99805C75.7441 7.83203 75.2168 7.74902 74.5918 7.74902H73.8594V15.6885H74.5918ZM74.9434 27.3633C75.4512 27.3633 75.9102 27.2998 76.3203 27.1729C76.7402 27.0361 77.0967 26.8311 77.3896 26.5576C77.6924 26.2744 77.9219 25.918 78.0781 25.4883C78.2441 25.0586 78.3271 24.5508 78.3271 23.9648V22.0166C78.3271 21.4307 78.2686 20.9131 78.1514 20.4639C78.0342 20.0049 77.8389 19.624 77.5654 19.3213C77.3018 19.0088 76.9551 18.7744 76.5254 18.6182C76.0957 18.4521 75.5684 18.3691 74.9434 18.3691H73.8594V27.3633H74.9434ZM90.7889 30.2197C90.3592 30.2197 89.9197 30.1855 89.4705 30.1172C89.0311 30.0488 88.6014 29.9072 88.1814 29.6924C87.7713 29.4775 87.3807 29.1699 87.0096 28.7695C86.6482 28.3691 86.3309 27.8418 86.0574 27.1875C85.784 26.5332 85.5691 25.7275 85.4129 24.7705C85.2566 23.8135 85.1785 22.6709 85.1785 21.3428V18.1787C85.1785 16.8701 85.2566 15.752 85.4129 14.8242C85.5789 13.8867 85.7986 13.1006 86.0721 12.4658C86.3553 11.8311 86.6824 11.3281 87.0535 10.957C87.4246 10.5762 87.8152 10.2881 88.2254 10.0928C88.6453 9.8877 89.075 9.75586 89.5145 9.69727C89.9539 9.62891 90.3836 9.59473 90.8035 9.59473C91.2039 9.59473 91.6189 9.62402 92.0486 9.68262C92.4783 9.74121 92.8982 9.86816 93.3084 10.0635C93.7186 10.249 94.1043 10.5322 94.4656 10.9131C94.8367 11.2842 95.159 11.7871 95.4324 12.4219C95.7156 13.0566 95.9354 13.8477 96.0916 14.7949C96.2576 15.7324 96.3406 16.8604 96.3406 18.1787V21.3428C96.3406 22.6514 96.2576 23.7793 96.0916 24.7266C95.9256 25.6738 95.701 26.4746 95.4178 27.1289C95.1346 27.7832 94.8074 28.3154 94.4363 28.7256C94.0652 29.126 93.6746 29.4385 93.2645 29.6631C92.8543 29.8877 92.4344 30.0342 92.0047 30.1025C91.5848 30.1807 91.1795 30.2197 90.7889 30.2197ZM90.8182 27.3633C91.1502 27.3633 91.4285 27.2803 91.6531 27.1143C91.8875 26.9385 92.073 26.6553 92.2098 26.2646C92.3562 25.874 92.4588 25.3613 92.5174 24.7266C92.5857 24.082 92.6199 23.2861 92.6199 22.3389V17.373C92.6199 16.4258 92.5857 15.6299 92.5174 14.9854C92.4588 14.3408 92.3562 13.8232 92.2098 13.4326C92.073 13.0322 91.8875 12.7441 91.6531 12.5684C91.4285 12.3926 91.1502 12.3047 90.8182 12.3047C90.4666 12.3047 90.1687 12.3926 89.9246 12.5684C89.6902 12.7441 89.4949 13.0322 89.3387 13.4326C89.1824 13.8232 89.0701 14.3408 89.0018 14.9854C88.9334 15.6299 88.8992 16.4258 88.8992 17.373V22.3389C88.8992 23.2861 88.9334 24.082 89.0018 24.7266C89.0701 25.3613 89.1824 25.874 89.3387 26.2646C89.4949 26.6553 89.6902 26.9385 89.9246 27.1143C90.1687 27.2803 90.4666 27.3633 90.8182 27.3633ZM105.155 30.2197C104.725 30.2197 104.286 30.1855 103.837 30.1172C103.397 30.0488 102.967 29.9072 102.547 29.6924C102.137 29.4775 101.747 29.1699 101.376 28.7695C101.014 28.3691 100.697 27.8418 100.423 27.1875C100.15 26.5332 99.9352 25.7275 99.7789 24.7705C99.6227 23.8135 99.5445 22.6709 99.5445 21.3428V18.1787C99.5445 16.8701 99.6227 15.752 99.7789 14.8242C99.9449 13.8867 100.165 13.1006 100.438 12.4658C100.721 11.8311 101.048 11.3281 101.42 10.957C101.791 10.5762 102.181 10.2881 102.591 10.0928C103.011 9.8877 103.441 9.75586 103.88 9.69727C104.32 9.62891 104.75 9.59473 105.17 9.59473C105.57 9.59473 105.985 9.62402 106.415 9.68262C106.844 9.74121 107.264 9.86816 107.674 10.0635C108.085 10.249 108.47 10.5322 108.832 10.9131C109.203 11.2842 109.525 11.7871 109.798 12.4219C110.082 13.0566 110.301 13.8477 110.458 14.7949C110.624 15.7324 110.707 16.8604 110.707 18.1787V21.3428C110.707 22.6514 110.624 23.7793 110.458 24.7266C110.292 25.6738 110.067 26.4746 109.784 27.1289C109.501 27.7832 109.173 28.3154 108.802 28.7256C108.431 29.126 108.041 29.4385 107.63 29.6631C107.22 29.8877 106.8 30.0342 106.371 30.1025C105.951 30.1807 105.546 30.2197 105.155 30.2197ZM105.184 27.3633C105.516 27.3633 105.795 27.2803 106.019 27.1143C106.254 26.9385 106.439 26.6553 106.576 26.2646C106.722 25.874 106.825 25.3613 106.883 24.7266C106.952 24.082 106.986 23.2861 106.986 22.3389V17.373C106.986 16.4258 106.952 15.6299 106.883 14.9854C106.825 14.3408 106.722 13.8232 106.576 13.4326C106.439 13.0322 106.254 12.7441 106.019 12.5684C105.795 12.3926 105.516 12.3047 105.184 12.3047C104.833 12.3047 104.535 12.3926 104.291 12.5684C104.056 12.7441 103.861 13.0322 103.705 13.4326C103.548 13.8232 103.436 14.3408 103.368 14.9854C103.299 15.6299 103.265 16.4258 103.265 17.373V22.3389C103.265 23.2861 103.299 24.082 103.368 24.7266C103.436 25.3613 103.548 25.874 103.705 26.2646C103.861 26.6553 104.056 26.9385 104.291 27.1143C104.535 27.2803 104.833 27.3633 105.184 27.3633ZM114.496 3.35449H118.203V18.6914H118.32L122.363 9.8291H125.922L121.44 19.0576L126.347 30H122.568L118.32 19.9951H118.203V30H114.496V3.35449Z" fill="#EFB304"/>
</svg>
