<svg width="151" height="45" viewBox="0 0 151 45" fill="none" xmlns="http://www.w3.org/2000/svg">
<path d="M6.05078 7.98047H9.87402V26.3203C9.87402 27.1016 9.91309 27.751 9.99121 28.2686C10.0693 28.7861 10.1914 29.2012 10.3574 29.5137C10.5332 29.8164 10.7529 30.0361 11.0166 30.1729C11.29 30.2998 11.6123 30.3633 11.9834 30.3633C12.3545 30.3633 12.6768 30.2998 12.9502 30.1729C13.2334 30.0361 13.4629 29.8164 13.6387 29.5137C13.8242 29.2012 13.9609 28.7861 14.0488 28.2686C14.1465 27.751 14.1953 27.1016 14.1953 26.3203V7.98047H17.9746V25.3096C17.9746 26.5303 17.877 27.5752 17.6816 28.4443C17.4863 29.3135 17.2275 30.041 16.9053 30.627C16.583 31.2129 16.2119 31.6768 15.792 32.0186C15.3818 32.3604 14.9521 32.624 14.5029 32.8096C14.0635 32.9854 13.624 33.0977 13.1846 33.1465C12.7451 33.1953 12.3447 33.2197 11.9834 33.2197C11.6221 33.2197 11.2217 33.1953 10.7822 33.1465C10.3525 33.0977 9.91797 32.9854 9.47852 32.8096C9.03906 32.624 8.61426 32.3604 8.2041 32.0186C7.79395 31.6768 7.42773 31.2129 7.10547 30.627C6.7832 30.041 6.52441 29.3184 6.3291 28.459C6.14355 27.5898 6.05078 26.54 6.05078 25.3096V7.98047ZM22.3797 12.8291H25.2361L25.573 14.9824V14.9971C25.866 14.5381 26.1785 14.1572 26.5105 13.8545C26.8523 13.542 27.2039 13.293 27.5652 13.1074C27.9266 12.9219 28.2928 12.79 28.6639 12.7119C29.0447 12.6338 29.4207 12.5947 29.7918 12.5947C30.9734 12.5947 31.8816 13.0098 32.5164 13.8398C33.1609 14.6602 33.4832 15.8955 33.4832 17.5459V33H29.7771V17.6777C29.7771 16.7891 29.6404 16.1738 29.367 15.832C29.0936 15.4805 28.6932 15.3047 28.1658 15.3047C27.7947 15.3047 27.4236 15.4268 27.0525 15.6709C26.6912 15.915 26.3689 16.252 26.0857 16.6816V33H22.3797V12.8291ZM39.7486 9.94336C39.065 9.94336 38.523 9.73828 38.1227 9.32812C37.732 8.91797 37.5367 8.31738 37.5367 7.52637C37.5367 7.08691 37.5855 6.7207 37.6832 6.42773C37.7906 6.125 37.9371 5.88574 38.1227 5.70996C38.318 5.52441 38.5523 5.39258 38.8258 5.31445C39.0992 5.22656 39.4117 5.18262 39.7633 5.18262C40.4957 5.18262 41.0523 5.36816 41.4332 5.73926C41.8141 6.11035 42.0045 6.70605 42.0045 7.52637C42.0045 8.28809 41.8092 8.88379 41.4186 9.31348C41.0377 9.7334 40.4811 9.94336 39.7486 9.94336ZM37.8297 12.8291H41.5357V33H37.8297V12.8291ZM46.2924 15.4658H44.725V12.8291H46.6146L47.3617 7.59961H49.9984V12.8291H53.2211V15.4658H49.9984V28.2979C49.9984 28.7373 50.0375 29.0938 50.1156 29.3672C50.2035 29.6309 50.3207 29.8408 50.4672 29.9971C50.6137 30.1436 50.7846 30.2412 50.9799 30.29C51.1752 30.3389 51.3803 30.3633 51.5951 30.3633C51.9564 30.3633 52.2738 30.3193 52.5473 30.2314C52.8305 30.1436 53.099 30.0215 53.3529 29.8652V31.916C53.1381 32.1797 52.9037 32.3945 52.6498 32.5605C52.4057 32.7266 52.1518 32.8633 51.8881 32.9707C51.6244 33.0684 51.3559 33.1367 51.0824 33.1758C50.809 33.2148 50.5404 33.2344 50.2768 33.2344C49.7592 33.2344 49.2611 33.166 48.7826 33.0293C48.3041 32.8926 47.8793 32.6338 47.5082 32.2529C47.1371 31.8623 46.8393 31.3252 46.6146 30.6416C46.3998 29.958 46.2924 29.0693 46.2924 27.9756V15.4658ZM55.4582 36.8818C56.0148 36.96 56.5275 36.9404 56.9963 36.8232C57.465 36.7158 57.8654 36.5059 58.1975 36.1934C58.5393 35.8809 58.8078 35.4658 59.0031 34.9482C59.2082 34.4404 59.3254 33.8301 59.3547 33.1172L54.5793 12.8291H58.3439L60.468 23.9912L61.0832 27.8438H61.2004L61.6252 23.9912L63.3391 12.8291H66.9865L62.7385 33.7471C62.5529 34.7139 62.3137 35.5586 62.0207 36.2812C61.7375 37.0039 61.3811 37.6045 60.9514 38.083C60.5314 38.5615 60.0285 38.918 59.4426 39.1523C58.8566 39.3965 58.173 39.5186 57.3918 39.5186C56.757 39.5186 56.1076 39.3965 55.4436 39.1523L55.4582 36.8818Z" fill="black"/>
<path d="M70.1387 7.98047H73.9766C74.543 7.98047 75.1289 8 75.7344 8.03906C76.3398 8.07812 76.9307 8.16113 77.5068 8.28809C78.083 8.41504 78.6299 8.60547 79.1475 8.85938C79.665 9.10352 80.1143 9.43555 80.4951 9.85547C80.8857 10.2754 81.1934 10.7979 81.418 11.4229C81.6523 12.0381 81.7695 12.7803 81.7695 13.6494V14.8652C81.7695 15.5293 81.6719 16.1396 81.4766 16.6963C81.291 17.2529 81.042 17.7461 80.7295 18.1758C80.417 18.5957 80.0605 18.9473 79.6602 19.2305C79.2598 19.5039 78.8496 19.6895 78.4297 19.7871V19.9043C79.6699 20.1289 80.6025 20.7197 81.2275 21.6768C81.8623 22.624 82.1797 23.8398 82.1797 25.3242V26.5986C82.1797 27.5068 82.0771 28.2979 81.8721 28.9717C81.6768 29.6357 81.3984 30.207 81.0371 30.6855C80.6758 31.1543 80.2461 31.54 79.748 31.8428C79.25 32.1455 78.7031 32.3848 78.1074 32.5605C77.5117 32.7266 76.877 32.8438 76.2031 32.9121C75.5293 32.9707 74.8359 33 74.123 33H70.1387V7.98047ZM74.5918 18.6885C75.0996 18.6885 75.5635 18.6299 75.9834 18.5127C76.4033 18.3857 76.7598 18.1953 77.0527 17.9414C77.3555 17.6777 77.585 17.3408 77.7412 16.9307C77.9072 16.5107 77.9902 16.0078 77.9902 15.4219V14.3965C77.9902 13.8105 77.9316 13.293 77.8145 12.8438C77.6973 12.3945 77.502 12.0137 77.2285 11.7012C76.9648 11.3887 76.6133 11.1543 76.1738 10.998C75.7441 10.832 75.2168 10.749 74.5918 10.749H73.8594V18.6885H74.5918ZM74.9434 30.3633C75.4512 30.3633 75.9102 30.2998 76.3203 30.1729C76.7402 30.0361 77.0967 29.8311 77.3896 29.5576C77.6924 29.2744 77.9219 28.918 78.0781 28.4883C78.2441 28.0586 78.3271 27.5508 78.3271 26.9648V25.0166C78.3271 24.4307 78.2686 23.9131 78.1514 23.4639C78.0342 23.0049 77.8389 22.624 77.5654 22.3213C77.3018 22.0088 76.9551 21.7744 76.5254 21.6182C76.0957 21.4521 75.5684 21.3691 74.9434 21.3691H73.8594V30.3633H74.9434ZM90.7889 33.2197C90.3592 33.2197 89.9197 33.1855 89.4705 33.1172C89.0311 33.0488 88.6014 32.9072 88.1814 32.6924C87.7713 32.4775 87.3807 32.1699 87.0096 31.7695C86.6482 31.3691 86.3309 30.8418 86.0574 30.1875C85.784 29.5332 85.5691 28.7275 85.4129 27.7705C85.2566 26.8135 85.1785 25.6709 85.1785 24.3428V21.1787C85.1785 19.8701 85.2566 18.752 85.4129 17.8242C85.5789 16.8867 85.7986 16.1006 86.0721 15.4658C86.3553 14.8311 86.6824 14.3281 87.0535 13.957C87.4246 13.5762 87.8152 13.2881 88.2254 13.0928C88.6453 12.8877 89.075 12.7559 89.5145 12.6973C89.9539 12.6289 90.3836 12.5947 90.8035 12.5947C91.2039 12.5947 91.6189 12.624 92.0486 12.6826C92.4783 12.7412 92.8982 12.8682 93.3084 13.0635C93.7186 13.249 94.1043 13.5322 94.4656 13.9131C94.8367 14.2842 95.159 14.7871 95.4324 15.4219C95.7156 16.0566 95.9354 16.8477 96.0916 17.7949C96.2576 18.7324 96.3406 19.8604 96.3406 21.1787V24.3428C96.3406 25.6514 96.2576 26.7793 96.0916 27.7266C95.9256 28.6738 95.701 29.4746 95.4178 30.1289C95.1346 30.7832 94.8074 31.3154 94.4363 31.7256C94.0652 32.126 93.6746 32.4385 93.2645 32.6631C92.8543 32.8877 92.4344 33.0342 92.0047 33.1025C91.5848 33.1807 91.1795 33.2197 90.7889 33.2197ZM90.8182 30.3633C91.1502 30.3633 91.4285 30.2803 91.6531 30.1143C91.8875 29.9385 92.073 29.6553 92.2098 29.2646C92.3562 28.874 92.4588 28.3613 92.5174 27.7266C92.5857 27.082 92.6199 26.2861 92.6199 25.3389V20.373C92.6199 19.4258 92.5857 18.6299 92.5174 17.9854C92.4588 17.3408 92.3562 16.8232 92.2098 16.4326C92.073 16.0322 91.8875 15.7441 91.6531 15.5684C91.4285 15.3926 91.1502 15.3047 90.8182 15.3047C90.4666 15.3047 90.1687 15.3926 89.9246 15.5684C89.6902 15.7441 89.4949 16.0322 89.3387 16.4326C89.1824 16.8232 89.0701 17.3408 89.0018 17.9854C88.9334 18.6299 88.8992 19.4258 88.8992 20.373V25.3389C88.8992 26.2861 88.9334 27.082 89.0018 27.7266C89.0701 28.3613 89.1824 28.874 89.3387 29.2646C89.4949 29.6553 89.6902 29.9385 89.9246 30.1143C90.1687 30.2803 90.4666 30.3633 90.8182 30.3633ZM105.155 33.2197C104.725 33.2197 104.286 33.1855 103.837 33.1172C103.397 33.0488 102.967 32.9072 102.547 32.6924C102.137 32.4775 101.747 32.1699 101.376 31.7695C101.014 31.3691 100.697 30.8418 100.423 30.1875C100.15 29.5332 99.9352 28.7275 99.7789 27.7705C99.6227 26.8135 99.5445 25.6709 99.5445 24.3428V21.1787C99.5445 19.8701 99.6227 18.752 99.7789 17.8242C99.9449 16.8867 100.165 16.1006 100.438 15.4658C100.721 14.8311 101.048 14.3281 101.42 13.957C101.791 13.5762 102.181 13.2881 102.591 13.0928C103.011 12.8877 103.441 12.7559 103.88 12.6973C104.32 12.6289 104.75 12.5947 105.17 12.5947C105.57 12.5947 105.985 12.624 106.415 12.6826C106.844 12.7412 107.264 12.8682 107.674 13.0635C108.085 13.249 108.47 13.5322 108.832 13.9131C109.203 14.2842 109.525 14.7871 109.798 15.4219C110.082 16.0566 110.301 16.8477 110.458 17.7949C110.624 18.7324 110.707 19.8604 110.707 21.1787V24.3428C110.707 25.6514 110.624 26.7793 110.458 27.7266C110.292 28.6738 110.067 29.4746 109.784 30.1289C109.501 30.7832 109.173 31.3154 108.802 31.7256C108.431 32.126 108.041 32.4385 107.63 32.6631C107.22 32.8877 106.8 33.0342 106.371 33.1025C105.951 33.1807 105.546 33.2197 105.155 33.2197ZM105.184 30.3633C105.516 30.3633 105.795 30.2803 106.019 30.1143C106.254 29.9385 106.439 29.6553 106.576 29.2646C106.722 28.874 106.825 28.3613 106.883 27.7266C106.952 27.082 106.986 26.2861 106.986 25.3389V20.373C106.986 19.4258 106.952 18.6299 106.883 17.9854C106.825 17.3408 106.722 16.8232 106.576 16.4326C106.439 16.0322 106.254 15.7441 106.019 15.5684C105.795 15.3926 105.516 15.3047 105.184 15.3047C104.833 15.3047 104.535 15.3926 104.291 15.5684C104.056 15.7441 103.861 16.0322 103.705 16.4326C103.548 16.8232 103.436 17.3408 103.368 17.9854C103.299 18.6299 103.265 19.4258 103.265 20.373V25.3389C103.265 26.2861 103.299 27.082 103.368 27.7266C103.436 28.3613 103.548 28.874 103.705 29.2646C103.861 29.6553 104.056 29.9385 104.291 30.1143C104.535 30.2803 104.833 30.3633 105.184 30.3633ZM114.496 6.35449H118.203V21.6914H118.32L122.363 12.8291H125.922L121.44 22.0576L126.347 33H122.568L118.32 22.9951H118.203V33H114.496V6.35449Z" fill="#EFB304"/>
</svg>
