<svg width="30" height="30" viewBox="0 0 30 30" fill="none" xmlns="http://www.w3.org/2000/svg">
<path d="M27.1734 20.5172C26.9645 22.1051 26.1847 23.5627 24.9796 24.6177C23.7745 25.6726 22.2266 26.2529 20.625 26.25C11.3203 26.25 3.75001 18.6797 3.75001 9.37501C3.74714 7.77339 4.32738 6.2255 5.38235 5.02043C6.43733 3.81536 7.8949 3.03552 9.48282 2.82657C9.88437 2.77754 10.291 2.85969 10.642 3.06076C10.993 3.26182 11.2696 3.57102 11.4305 3.94219L13.9055 9.46759V9.48165C14.0286 9.76577 14.0795 10.076 14.0535 10.3845C14.0275 10.6931 13.9256 10.9905 13.7567 11.25C13.7356 11.2816 13.7133 11.3109 13.6899 11.3402L11.25 14.2324C12.1277 16.016 13.9934 17.8652 15.8004 18.7453L18.6527 16.3184C18.6808 16.2948 18.7101 16.2729 18.7406 16.2527C19 16.0798 19.2983 15.9742 19.6087 15.9455C19.9191 15.9169 20.2318 15.9661 20.5184 16.0887L20.5336 16.0957L26.0543 18.5695C26.4261 18.7298 26.7361 19.0062 26.9378 19.3572C27.1395 19.7083 27.2222 20.1152 27.1734 20.5172Z" fill="#EFB304"/>
</svg>
